#include <stdint.h>
const uint8_t midifile[] = {
0x4d,0x54,0x68,0x64,0x00,0x00,0x00,0x06,0x00,0x01,0x00,0x02,0x00,0xc0,0x4d,0x54,
0x72,0x6b,0x00,0x00,0x00,0x24,0x00,0xff,0x58,0x04,0x04,0x02,0x18,0x08,0x00,0xff,
0x51,0x03,0x04,0x24,0x85,0x00,0xff,0x03,0x0b,0x54,0x65,0x6d,0x70,0x6f,0x20,0x54,
0x72,0x61,0x63,0x6b,0x82,0x8e,0x25,0xff,0x2f,0x00,0x4d,0x54,0x72,0x6b,0x00,0x00,
0x0c,0x6b,0x00,0xff,0x51,0x03,0x04,0x38,0x11,0x00,0xff,0x03,0x0e,0x4e,0x65,0x77,
0x20,0x49,0x6e,0x73,0x74,0x72,0x75,0x6d,0x65,0x6e,0x74,0x00,0xb0,0x07,0x6e,0x00,
0xb0,0x07,0x66,0x00,0xb0,0x0a,0x40,0x00,0xb0,0x07,0x65,0x00,0xc0,0x00,0x00,0xb0,
0x65,0x00,0x00,0xb0,0x64,0x00,0x00,0xb0,0x65,0x00,0x00,0xb0,0x64,0x00,0x00,0xb0,
0x06,0x0c,0x00,0xb0,0x06,0x0c,0x00,0xb0,0x26,0x00,0x00,0xb0,0x26,0x00,0x01,0x90,
0x3b,0x4b,0x00,0xb0,0x07,0x6e,0x00,0xb0,0x07,0x66,0x00,0x90,0x2b,0x50,0x82,0x07,
0x80,0x2b,0x00,0x1d,0x90,0x2b,0x4b,0x5a,0x80,0x2b,0x00,0x06,0x90,0x26,0x4b,0x58,
0x80,0x26,0x00,0x06,0x90,0x2b,0x4b,0x43,0x80,0x2b,0x00,0x1d,0x90,0x2b,0x4b,0x82,
0x02,0x80,0x2b,0x00,0x1d,0x90,0x2b,0x4b,0x5a,0x80,0x2b,0x00,0x06,0x90,0x26,0x4a,
0x58,0x80,0x26,0x00,0x05,0x90,0x2b,0x4b,0x5b,0x80,0x2b,0x00,0x05,0x80,0x3b,0x00,
0x01,0x90,0x3c,0x4b,0x00,0x90,0x2e,0x50,0x82,0x08,0x80,0x2e,0x00,0x1d,0x90,0x2e,
0x4b,0x5a,0x80,0x2e,0x00,0x06,0x90,0x29,0x4c,0x58,0x80,0x29,0x00,0x06,0x90,0x2e,
0x4b,0x43,0x80,0x2e,0x00,0x1d,0x90,0x2e,0x4b,0x82,0x02,0x80,0x2e,0x00,0x1d,0x90,
0x2e,0x4b,0x5a,0x80,0x2e,0x00,0x06,0x90,0x29,0x4b,0x58,0x80,0x29,0x00,0x05,0x90,
0x2e,0x4b,0x5b,0x80,0x2e,0x00,0x05,0x80,0x3c,0x00,0x01,0x90,0x3b,0x4b,0x00,0x90,
0x2b,0x50,0x82,0x08,0x80,0x2b,0x00,0x1d,0x90,0x2b,0x4b,0x5a,0x80,0x2b,0x00,0x06,
0x90,0x26,0x4b,0x58,0x80,0x26,0x00,0x06,0x90,0x2b,0x4b,0x43,0x80,0x2b,0x00,0x1d,
0x90,0x2b,0x4b,0x82,0x02,0x80,0x2b,0x00,0x1d,0x90,0x2b,0x4b,0x5a,0x80,0x2b,0x00,
0x06,0x90,0x26,0x4a,0x58,0x80,0x26,0x00,0x05,0x90,0x2b,0x4b,0x5b,0x80,0x2b,0x00,
0x05,0x80,0x3b,0x00,0x01,0x90,0x3c,0x4b,0x00,0x90,0x2e,0x50,0x82,0x08,0x80,0x2e,
0x00,0x1d,0x90,0x2e,0x4b,0x5a,0x80,0x2e,0x00,0x06,0x90,0x29,0x4c,0x58,0x80,0x29,
0x00,0x06,0x90,0x2e,0x4b,0x43,0x80,0x2e,0x00,0x1d,0x90,0x2e,0x4b,0x82,0x02,0x80,
0x2e,0x00,0x1d,0x90,0x2e,0x4b,0x5a,0x80,0x2e,0x00,0x06,0x90,0x29,0x4b,0x58,0x80,
0x29,0x00,0x05,0x90,0x2e,0x4b,0x5b,0x80,0x2e,0x00,0x05,0x80,0x3c,0x00,0x01,0x90,
0x3b,0x50,0x00,0x90,0x43,0x4b,0x00,0x90,0x2b,0x50,0x82,0x08,0x80,0x2b,0x00,0x1d,
0x90,0x2b,0x4b,0x5a,0x80,0x2b,0x00,0x06,0x90,0x37,0x4c,0x58,0x80,0x37,0x00,0x06,
0x90,0x32,0x4b,0x5b,0x80,0x32,0x00,0x05,0x80,0x3b,0x00,0x00,0x90,0x3e,0x4b,0x00,
0x90,0x2b,0x4b,0x82,0x02,0x80,0x2b,0x00,0x1d,0x90,0x2b,0x4b,0x5a,0x80,0x2b,0x00,
0x06,0x90,0x32,0x4b,0x58,0x80,0x32,0x00,0x05,0x90,0x2b,0x4b,0x5b,0x80,0x2b,0x00,
0x05,0x80,0x43,0x00,0x00,0x80,0x3e,0x00,0x01,0x90,0x3c,0x50,0x00,0x90,0x46,0x50,
0x00,0x90,0x2e,0x50,0x82,0x08,0x80,0x2e,0x00,0x1d,0x90,0x2e,0x4b,0x5a,0x80,0x2e,
0x00,0x06,0x90,0x35,0x4c,0x58,0x80,0x35,0x00,0x06,0x90,0x2e,0x4b,0x43,0x80,0x2e,
0x00,0x1d,0x80,0x3c,0x00,0x00,0x80,0x46,0x00,0x00,0x90,0x2e,0x4b,0x00,0x90,0x41,
0x4b,0x81,0x6f,0x80,0x41,0x00,0x13,0x80,0x2e,0x00,0x1d,0x90,0x2e,0x4b,0x00,0x90,
0x45,0x4b,0x43,0x80,0x45,0x00,0x05,0x90,0x46,0x4b,0x12,0x80,0x2e,0x00,0x06,0x90,
0x35,0x4b,0x2a,0x80,0x46,0x00,0x04,0x90,0x45,0x4b,0x2a,0x80,0x35,0x00,0x05,0x90,
0x2e,0x4b,0x13,0x80,0x45,0x00,0x05,0x90,0x41,0x4b,0x43,0x80,0x2e,0x00,0x01,0x80,
0x41,0x00,0x05,0x90,0x3b,0x50,0x00,0x90,0x43,0x4b,0x00,0x90,0x2b,0x50,0x82,0x08,
0x80,0x2b,0x00,0x1d,0x90,0x2b,0x4b,0x5a,0x80,0x2b,0x00,0x06,0x90,0x37,0x4c,0x58,
0x80,0x37,0x00,0x06,0x90,0x32,0x4b,0x5b,0x80,0x32,0x00,0x05,0x80,0x3b,0x00,0x00,
0x90,0x3e,0x4b,0x00,0x90,0x2b,0x4b,0x82,0x02,0x80,0x2b,0x00,0x1d,0x90,0x2b,0x4b,
0x5a,0x80,0x2b,0x00,0x06,0x90,0x32,0x4b,0x58,0x80,0x32,0x00,0x05,0x90,0x2b,0x4b,
0x3e,0x80,0x2b,0x00,0x22,0x80,0x43,0x00,0x00,0x80,0x3e,0x00,0x01,0x90,0x3c,0x50,
0x00,0x90,0x46,0x50,0x00,0x90,0x2e,0x50,0x82,0x08,0x80,0x2e,0x00,0x1d,0x90,0x2e,
0x4b,0x5a,0x80,0x2e,0x00,0x06,0x90,0x35,0x4c,0x58,0x80,0x35,0x00,0x06,0x90,0x2e,
0x4b,0x43,0x80,0x2e,0x00,0x1d,0x80,0x3c,0x00,0x00,0x80,0x46,0x00,0x00,0x90,0x41,
0x4b,0x00,0x90,0x2e,0x4b,0x81,0x6f,0x80,0x41,0x00,0x13,0x80,0x2e,0x00,0x1d,0x90,
0x2e,0x4b,0x00,0x90,0x45,0x4b,0x43,0x80,0x45,0x00,0x05,0x90,0x46,0x4b,0x12,0x80,
0x2e,0x00,0x06,0x90,0x35,0x4b,0x2a,0x80,0x46,0x00,0x04,0x90,0x45,0x4b,0x2a,0x80,
0x35,0x00,0x05,0x90,0x2e,0x4b,0x13,0x80,0x45,0x00,0x05,0x90,0x41,0x4b,0x43,0x80,
0x2e,0x00,0x01,0x80,0x41,0x00,0x05,0x90,0x3b,0x50,0x00,0x90,0x43,0x4b,0x00,0x90,
0x2b,0x50,0x82,0x08,0x80,0x2b,0x00,0x1d,0x90,0x2b,0x4b,0x5a,0x80,0x2b,0x00,0x06,
0x90,0x37,0x4c,0x58,0x80,0x37,0x00,0x06,0x90,0x32,0x4b,0x5b,0x80,0x32,0x00,0x05,
0x80,0x3b,0x00,0x00,0x90,0x3e,0x4b,0x00,0x90,0x2b,0x4b,0x82,0x02,0x80,0x2b,0x00,
0x1d,0x90,0x2b,0x4b,0x5a,0x80,0x2b,0x00,0x06,0x90,0x32,0x4b,0x58,0x80,0x32,0x00,
0x05,0x90,0x2b,0x4b,0x5b,0x80,0x2b,0x00,0x05,0x80,0x43,0x00,0x00,0x80,0x3e,0x00,
0x01,0x90,0x3c,0x50,0x00,0x90,0x46,0x50,0x00,0x90,0x2e,0x50,0x82,0x08,0x80,0x2e,
0x00,0x1d,0x90,0x2e,0x4b,0x5a,0x80,0x2e,0x00,0x06,0x90,0x35,0x4c,0x58,0x80,0x35,
0x00,0x06,0x90,0x2e,0x4b,0x43,0x80,0x2e,0x00,0x1d,0x80,0x3c,0x00,0x00,0x80,0x46,
0x00,0x00,0x90,0x41,0x4b,0x00,0x90,0x2e,0x4b,0x81,0x6f,0x80,0x41,0x00,0x13,0x80,
0x2e,0x00,0x1d,0x90,0x2e,0x4b,0x00,0x90,0x45,0x4b,0x43,0x80,0x45,0x00,0x05,0x90,
0x46,0x4b,0x12,0x80,0x2e,0x00,0x06,0x90,0x35,0x4b,0x2a,0x80,0x46,0x00,0x04,0x90,
0x45,0x4b,0x2a,0x80,0x35,0x00,0x05,0x90,0x2e,0x4b,0x13,0x80,0x45,0x00,0x05,0x90,
0x41,0x4b,0x43,0x80,0x2e,0x00,0x01,0x80,0x41,0x00,0x05,0x90,0x2b,0x50,0x00,0x90,
0x3b,0x4b,0x00,0x90,0x43,0x4b,0x82,0x25,0x90,0x32,0x4b,0x00,0x80,0x2b,0x00,0x5a,
0x80,0x32,0x00,0x06,0x90,0x2b,0x4c,0x41,0x80,0x2b,0x00,0x1d,0x90,0x2b,0x4b,0x43,
0x80,0x2b,0x00,0x1d,0x90,0x2b,0x4b,0x82,0x1f,0x90,0x32,0x4b,0x00,0x80,0x2b,0x00,
0x5a,0x80,0x32,0x00,0x06,0x90,0x2b,0x4b,0x40,0x80,0x2b,0x00,0x1d,0x90,0x2b,0x4b,
0x43,0x80,0x2b,0x00,0x00,0x80,0x43,0x00,0x1d,0x80,0x3b,0x00,0x01,0x90,0x2b,0x50,
0x00,0x90,0x3c,0x50,0x00,0x90,0x43,0x4b,0x82,0x25,0x90,0x32,0x4b,0x00,0x80,0x2b,
0x00,0x5a,0x80,0x32,0x00,0x06,0x90,0x2b,0x4c,0x41,0x80,0x2b,0x00,0x1d,0x90,0x2b,
0x4b,0x43,0x80,0x2b,0x00,0x1d,0x80,0x3c,0x00,0x00,0x90,0x2b,0x4b,0x00,0x90,0x3e,
0x4b,0x82,0x1f,0x90,0x32,0x4b,0x00,0x80,0x2b,0x00,0x5a,0x80,0x32,0x00,0x06,0x90,
0x2b,0x4b,0x40,0x80,0x2b,0x00,0x1d,0x90,0x2b,0x4b,0x5b,0x80,0x2b,0x00,0x05,0x80,
0x43,0x00,0x00,0x80,0x3e,0x00,0x01,0x90,0x24,0x4e,0x00,0x90,0x3c,0x50,0x00,0x90,
0x48,0x50,0x61,0x80,0x24,0x00,0x06,0x90,0x2b,0x4b,0x58,0x80,0x2b,0x00,0x06,0x90,
0x24,0x49,0x43,0x80,0x24,0x00,0x1d,0x90,0x24,0x49,0x82,0x01,0x80,0x24,0x00,0x1d,
0x90,0x24,0x49,0x5c,0x80,0x24,0x00,0x05,0x90,0x2b,0x4b,0x58,0x80,0x2b,0x00,0x06,
0x90,0x24,0x49,0x43,0x80,0x24,0x00,0x1d,0x80,0x3c,0x00,0x00,0x80,0x48,0x00,0x00,
0x90,0x43,0x4b,0x00,0x90,0x24,0x49,0x5a,0x80,0x43,0x00,0x06,0x90,0x3c,0x4b,0x58,
0x80,0x3c,0x00,0x05,0x90,0x43,0x4b,0x43,0x80,0x24,0x00,0x18,0x80,0x43,0x00,0x06,
0x90,0x24,0x4e,0x00,0x90,0x41,0x50,0x00,0x90,0x46,0x50,0x61,0x80,0x24,0x00,0x06,
0x90,0x2b,0x4b,0x58,0x80,0x2b,0x00,0x06,0x90,0x24,0x49,0x43,0x80,0x24,0x00,0x1d,
0x90,0x24,0x49,0x82,0x01,0x80,0x24,0x00,0x1d,0x80,0x41,0x00,0x00,0x80,0x46,0x00,
0x00,0x90,0x24,0x49,0x00,0x90,0x3e,0x4b,0x5c,0x80,0x24,0x00,0x05,0x90,0x2b,0x4b,
0x58,0x80,0x2b,0x00,0x06,0x90,0x24,0x49,0x43,0x80,0x24,0x00,0x1d,0x90,0x45,0x4b,
0x00,0x90,0x24,0x49,0x43,0x80,0x45,0x00,0x05,0x90,0x46,0x4b,0x42,0x80,0x46,0x00,
0x04,0x90,0x45,0x4b,0x42,0x80,0x45,0x00,0x05,0x90,0x41,0x4b,0x2b,0x80,0x24,0x00,
0x19,0x80,0x41,0x00,0x04,0x80,0x3e,0x00,0x01,0x90,0x24,0x4e,0x00,0x90,0x3c,0x50,
0x00,0x90,0x48,0x50,0x61,0x80,0x24,0x00,0x06,0x90,0x2b,0x4b,0x58,0x80,0x2b,0x00,
0x06,0x90,0x24,0x49,0x43,0x80,0x24,0x00,0x1d,0x90,0x24,0x49,0x82,0x01,0x80,0x24,
0x00,0x1d,0x90,0x24,0x49,0x5c,0x80,0x24,0x00,0x05,0x90,0x2b,0x4b,0x58,0x80,0x2b,
0x00,0x06,0x90,0x24,0x49,0x43,0x80,0x24,0x00,0x1d,0x80,0x3c,0x00,0x00,0x80,0x48,
0x00,0x00,0x90,0x43,0x4b,0x00,0x90,0x24,0x49,0x5a,0x80,0x43,0x00,0x06,0x90,0x3c,
0x4b,0x58,0x80,0x3c,0x00,0x05,0x90,0x43,0x4b,0x43,0x80,0x24,0x00,0x18,0x80,0x43,
0x00,0x06,0x90,0x24,0x4e,0x00,0x90,0x41,0x50,0x00,0x90,0x46,0x50,0x61,0x80,0x24,
0x00,0x06,0x90,0x2b,0x4b,0x58,0x80,0x2b,0x00,0x06,0x90,0x24,0x49,0x43,0x80,0x24,
0x00,0x1d,0x90,0x24,0x49,0x82,0x01,0x80,0x24,0x00,0x1d,0x80,0x41,0x00,0x00,0x80,
0x46,0x00,0x00,0x90,0x24,0x49,0x00,0x90,0x3e,0x4b,0x5c,0x80,0x24,0x00,0x05,0x90,
0x2b,0x4b,0x58,0x80,0x2b,0x00,0x06,0x90,0x24,0x49,0x43,0x80,0x24,0x00,0x1d,0x90,
0x45,0x4b,0x00,0x90,0x24,0x49,0x43,0x80,0x45,0x00,0x05,0x90,0x46,0x4b,0x42,0x80,
0x46,0x00,0x04,0x90,0x45,0x4b,0x42,0x80,0x45,0x00,0x05,0x90,0x41,0x4b,0x2b,0x80,
0x24,0x00,0x19,0x80,0x41,0x00,0x04,0x80,0x3e,0x00,0x01,0x90,0x24,0x4e,0x00,0x90,
0x3c,0x50,0x00,0x90,0x48,0x50,0x61,0x80,0x24,0x00,0x06,0x90,0x2b,0x4b,0x58,0x80,
0x2b,0x00,0x06,0x90,0x24,0x49,0x43,0x80,0x24,0x00,0x1d,0x90,0x24,0x49,0x82,0x01,
0x80,0x24,0x00,0x1d,0x90,0x24,0x49,0x5c,0x80,0x24,0x00,0x05,0x90,0x2b,0x4b,0x58,
0x80,0x2b,0x00,0x06,0x90,0x24,0x49,0x43,0x80,0x24,0x00,0x1d,0x80,0x3c,0x00,0x00,
0x80,0x48,0x00,0x00,0x90,0x43,0x4b,0x00,0x90,0x24,0x49,0x5a,0x80,0x43,0x00,0x06,
0x90,0x3c,0x4b,0x58,0x80,0x3c,0x00,0x05,0x90,0x43,0x4b,0x43,0x80,0x24,0x00,0x18,
0x80,0x43,0x00,0x06,0x90,0x24,0x4e,0x00,0x90,0x41,0x50,0x00,0x90,0x46,0x50,0x61,
0x80,0x24,0x00,0x06,0x90,0x2b,0x4b,0x58,0x80,0x2b,0x00,0x06,0x90,0x24,0x49,0x43,
0x80,0x24,0x00,0x1d,0x90,0x24,0x49,0x82,0x01,0x80,0x24,0x00,0x1d,0x80,0x41,0x00,
0x00,0x80,0x46,0x00,0x00,0x90,0x24,0x49,0x00,0x90,0x3e,0x4b,0x5c,0x80,0x24,0x00,
0x05,0x90,0x2b,0x4b,0x58,0x80,0x2b,0x00,0x06,0x90,0x24,0x49,0x43,0x80,0x24,0x00,
0x1d,0x90,0x45,0x4b,0x00,0x90,0x24,0x49,0x43,0x80,0x45,0x00,0x05,0x90,0x46,0x4b,
0x42,0x80,0x46,0x00,0x04,0x90,0x45,0x4b,0x42,0x80,0x45,0x00,0x05,0x90,0x41,0x4b,
0x2b,0x80,0x24,0x00,0x19,0x80,0x41,0x00,0x04,0x80,0x3e,0x00,0x01,0x90,0x24,0x4e,
0x00,0x90,0x43,0x51,0x00,0x90,0x40,0x43,0x61,0x80,0x24,0x00,0x06,0x90,0x2b,0x4b,
0x58,0x80,0x2b,0x00,0x06,0x90,0x24,0x49,0x43,0x80,0x24,0x00,0x1d,0x90,0x24,0x49,
0x82,0x01,0x80,0x24,0x00,0x1d,0x90,0x24,0x49,0x5c,0x80,0x24,0x00,0x05,0x90,0x2b,
0x4b,0x58,0x80,0x2b,0x00,0x06,0x90,0x24,0x49,0x43,0x80,0x24,0x00,0x1d,0x90,0x24,
0x49,0x81,0x32,0x80,0x40,0x00,0x4e,0x80,0x24,0x00,0x1d,0x80,0x43,0x00,0x01,0x90,
0x24,0x4e,0x00,0x90,0x40,0x51,0x00,0x90,0x37,0x43,0x61,0x80,0x24,0x00,0x06,0x90,
0x2b,0x4b,0x58,0x80,0x2b,0x00,0x06,0x90,0x24,0x49,0x43,0x80,0x24,0x00,0x1d,0x90,
0x24,0x49,0x82,0x01,0x80,0x24,0x00,0x1d,0x90,0x24,0x49,0x5c,0x80,0x24,0x00,0x05,
0x90,0x2b,0x4b,0x58,0x80,0x2b,0x00,0x06,0x90,0x24,0x49,0x43,0x80,0x24,0x00,0x1d,
0x90,0x24,0x49,0x82,0x1d,0x80,0x40,0x00,0x00,0x80,0x37,0x00,0x00,0x80,0x24,0x00,
0x01,0x90,0x41,0x50,0x00,0x90,0x45,0x50,0x00,0x90,0x27,0x4f,0x82,0x08,0x80,0x27,
0x00,0x1d,0x80,0x41,0x00,0x00,0x90,0x27,0x4a,0x00,0x90,0x3c,0x4b,0x5a,0x80,0x27,
0x00,0x06,0x90,0x24,0x4a,0x58,0x80,0x24,0x00,0x06,0x90,0x27,0x4a,0x43,0x80,0x27,
0x00,0x1d,0x80,0x45,0x00,0x00,0x80,0x3c,0x00,0x00,0x90,0x39,0x4b,0x00,0x90,0x27,
0x4a,0x82,0x02,0x80,0x27,0x00,0x1d,0x90,0x27,0x4a,0x00,0x90,0x45,0x51,0x00,0x90,
0x3e,0x43,0x5a,0x80,0x27,0x00,0x00,0x80,0x3e,0x00,0x05,0x80,0x45,0x00,0x01,0x90,
0x24,0x49,0x00,0x90,0x43,0x51,0x00,0x90,0x3c,0x43,0x58,0x80,0x24,0x00,0x00,0x80,
0x3c,0x00,0x05,0x80,0x43,0x00,0x00,0x90,0x27,0x4a,0x00,0x90,0x45,0x51,0x00,0x90,
0x3e,0x43,0x3e,0x80,0x3e,0x00,0x1d,0x80,0x27,0x00,0x05,0x80,0x39,0x00,0x00,0x80,
0x45,0x00,0x01,0x90,0x3e,0x50,0x00,0x90,0x46,0x50,0x00,0x90,0x26,0x4f,0x82,0x08,
0x80,0x26,0x00,0x1d,0x80,0x3e,0x00,0x00,0x90,0x26,0x4a,0x00,0x90,0x41,0x4b,0x5a,
0x80,0x26,0x00,0x06,0x90,0x22,0x4a,0x58,0x80,0x22,0x00,0x06,0x90,0x26,0x4a,0x43,
0x80,0x26,0x00,0x00,0x80,0x41,0x00,0x1d,0x80,0x46,0x00,0x00,0x90,0x3c,0x4b,0x00,
0x90,0x41,0x4b,0x00,0x90,0x26,0x4a,0x81,0x6f,0x80,0x3c,0x00,0x13,0x80,0x26,0x00,
0x1d,0x80,0x41,0x00,0x00,0x90,0x26,0x4a,0x00,0x90,0x3c,0x4b,0x5a,0x80,0x26,0x00,
0x00,0x80,0x3c,0x00,0x06,0x90,0x22,0x49,0x00,0x90,0x41,0x51,0x00,0x90,0x3a,0x43,
0x58,0x80,0x22,0x00,0x00,0x80,0x3a,0x00,0x05,0x80,0x41,0x00,0x00,0x90,0x26,0x4a,
0x00,0x90,0x43,0x51,0x00,0x90,0x3c,0x43,0x5b,0x80,0x26,0x00,0x00,0x80,0x3c,0x00,
0x05,0x80,0x43,0x00,0x01,0x90,0x3f,0x50,0x00,0x90,0x45,0x50,0x00,0x90,0x27,0x4f,
0x82,0x08,0x80,0x27,0x00,0x1d,0x80,0x3f,0x00,0x00,0x90,0x27,0x4a,0x00,0x90,0x39,
0x4b,0x5a,0x80,0x27,0x00,0x06,0x90,0x24,0x4a,0x58,0x80,0x24,0x00,0x06,0x90,0x27,
0x4a,0x43,0x80,0x27,0x00,0x1d,0x80,0x45,0x00,0x00,0x80,0x39,0x00,0x00,0x90,0x35,
0x4b,0x00,0x90,0x27,0x4a,0x82,0x02,0x80,0x27,0x00,0x1d,0x80,0x35,0x00,0x00,0x90,
0x27,0x4a,0x00,0x90,0x45,0x51,0x00,0x90,0x3e,0x43,0x5a,0x80,0x27,0x00,0x00,0x80,
0x3e,0x00,0x05,0x80,0x45,0x00,0x01,0x90,0x24,0x49,0x00,0x90,0x43,0x51,0x00,0x90,
0x3c,0x43,0x58,0x80,0x24,0x00,0x00,0x80,0x3c,0x00,0x05,0x80,0x43,0x00,0x00,0x90,
0x27,0x4a,0x00,0x90,0x45,0x51,0x00,0x90,0x3e,0x43,0x3e,0x80,0x3e,0x00,0x1d,0x80,
0x27,0x00,0x05,0x80,0x45,0x00,0x01,0x90,0x3e,0x50,0x00,0x90,0x46,0x50,0x00,0x90,
0x26,0x4f,0x82,0x08,0x80,0x26,0x00,0x1d,0x80,0x3e,0x00,0x00,0x90,0x26,0x4a,0x00,
0x90,0x41,0x4b,0x5a,0x80,0x26,0x00,0x06,0x90,0x22,0x4a,0x58,0x80,0x22,0x00,0x06,
0x90,0x26,0x4a,0x43,0x80,0x26,0x00,0x00,0x80,0x41,0x00,0x1d,0x80,0x46,0x00,0x00,
0x90,0x3a,0x4b,0x00,0x90,0x41,0x4b,0x00,0x90,0x26,0x4a,0x82,0x02,0x80,0x26,0x00,
0x00,0x80,0x41,0x00,0x1d,0x90,0x26,0x4a,0x00,0x90,0x41,0x51,0x00,0x90,0x3c,0x43,
0x42,0x80,0x41,0x00,0x18,0x80,0x26,0x00,0x00,0x80,0x3c,0x00,0x06,0x90,0x22,0x49,
0x00,0x90,0x46,0x51,0x00,0x90,0x41,0x43,0x58,0x80,0x22,0x00,0x00,0x80,0x41,0x00,
0x05,0x80,0x46,0x00,0x00,0x90,0x26,0x4a,0x00,0x90,0x48,0x51,0x00,0x90,0x45,0x43,
0x5b,0x80,0x26,0x00,0x00,0x80,0x45,0x00,0x05,0x80,0x3a,0x00,0x00,0x80,0x48,0x00,
0x01,0x90,0x2b,0x50,0x00,0x90,0x47,0x50,0x00,0x90,0x4a,0x4b,0x82,0x25,0x80,0x2b,
0x00,0x00,0x90,0x21,0x48,0x82,0x1e,0x80,0x47,0x00,0x00,0x80,0x21,0x00,0x00,0x90,
0x23,0x49,0x00,0x90,0x45,0x4b,0x82,0x1f,0x80,0x23,0x00,0x00,0x90,0x24,0x49,0x82,
0x1d,0x80,0x4a,0x00,0x00,0x80,0x45,0x00,0x00,0x80,0x24,0x00,0x01,0x90,0x26,0x4f,
0x00,0x90,0x43,0x50,0x00,0x90,0x48,0x4b,0x82,0x25,0x80,0x26,0x00,0x00,0x90,0x28,
0x4a,0x82,0x1e,0x80,0x43,0x00,0x00,0x80,0x28,0x00,0x00,0x90,0x2a,0x4b,0x00,0x90,
0x47,0x4b,0x82,0x1f,0x80,0x2a,0x00,0x00,0x90,0x2b,0x4b,0x82,0x00,0x80,0x48,0x00,
0x1d,0x80,0x47,0x00,0x00,0x80,0x2b,0x00,0x01,0x90,0x2c,0x50,0x00,0x90,0x3f,0x50,
0x00,0x90,0x48,0x50,0x82,0x25,0x80,0x2c,0x00,0x00,0x80,0x3f,0x00,0x00,0x90,0x2c,
0x4b,0x00,0x90,0x41,0x4b,0x5a,0x80,0x2c,0x00,0x06,0x90,0x27,0x4b,0x58,0x80,0x27,
0x00,0x06,0x90,0x24,0x49,0x5b,0x80,0x24,0x00,0x05,0x80,0x48,0x00,0x00,0x80,0x41,
0x00,0x00,0x90,0x20,0x48,0x00,0x90,0x38,0x4b,0x82,0x1f,0x80,0x20,0x00,0x00,0x80,
0x38,0x00,0x00,0x90,0x30,0x4b,0x00,0x90,0x4b,0x51,0x00,0x90,0x44,0x43,0x5a,0x80,
0x30,0x00,0x00,0x80,0x44,0x00,0x05,0x80,0x4b,0x00,0x01,0x90,0x2e,0x4b,0x00,0x90,
0x4a,0x51,0x00,0x90,0x43,0x43,0x58,0x80,0x2e,0x00,0x00,0x80,0x43,0x00,0x05,0x80,
0x4a,0x00,0x00,0x90,0x2c,0x4b,0x00,0x90,0x48,0x51,0x00,0x90,0x41,0x43,0x3e,0x80,
0x41,0x00,0x1d,0x80,0x2c,0x00,0x05,0x80,0x48,0x00,0x01,0x90,0x27,0x4f,0x00,0x90,
0x41,0x50,0x00,0x90,0x4a,0x50,0x82,0x25,0x80,0x27,0x00,0x00,0x90,0x26,0x4a,0x82,
0x1e,0x80,0x41,0x00,0x00,0x80,0x4a,0x00,0x00,0x80,0x26,0x00,0x00,0x90,0x24,0x49,
0x00,0x90,0x3e,0x4b,0x00,0x90,0x46,0x4b,0x81,0x61,0x80,0x3e,0x00,0x21,0x80,0x46,
0x00,0x1d,0x80,0x24,0x00,0x00,0x90,0x22,0x49,0x00,0x90,0x46,0x51,0x00,0x90,0x3e,
0x43,0x5a,0x80,0x3e,0x00,0x05,0x80,0x46,0x00,0x01,0x90,0x4a,0x51,0x00,0x90,0x41,
0x43,0x58,0x80,0x41,0x00,0x05,0x80,0x4a,0x00,0x00,0x90,0x4d,0x51,0x00,0x90,0x44,
0x43,0x5b,0x80,0x44,0x00,0x05,0x80,0x22,0x00,0x00,0x80,0x4d,0x00,0x01,0x90,0x4e,
0x51,0x00,0x90,0x4a,0x43,0x00,0x90,0x2d,0x50,0x82,0x08,0x80,0x2d,0x00,0x1d,0x90,
0x2d,0x4b,0x82,0x01,0x80,0x2d,0x00,0x1d,0x90,0x2d,0x4b,0x82,0x02,0x80,0x2d,0x00,
0x1d,0x90,0x2d,0x4b,0x82,0x00,0x80,0x2d,0x00,0x1d,0x80,0x4e,0x00,0x00,0x80,0x4a,
0x00,0x01,0x90,0x47,0x50,0x00,0x90,0x4e,0x4b,0x00,0x90,0x2d,0x44,0x4a,0x80,0x2d,
0x00,0x1d,0x90,0x2d,0x3f,0x41,0x80,0x2d,0x00,0x1d,0x90,0x2d,0x3f,0x43,0x80,0x2d,
0x00,0x1d,0x90,0x2d,0x3f,0x43,0x80,0x2d,0x00,0x1d,0x90,0x2d,0x40,0x41,0x80,0x2d,
0x00,0x1d,0x90,0x2d,0x3f,0x43,0x80,0x2d,0x00,0x1d,0x80,0x47,0x00,0x00,0x90,0x43,
0x4b,0x00,0x90,0x2d,0x3f,0x44,0x80,0x2d,0x00,0x1d,0x90,0x2d,0x3f,0x41,0x80,0x2d,
0x00,0x1d,0x80,0x4e,0x00,0x00,0x90,0x2d,0x3f,0x43,0x80,0x2d,0x00,0x1d,0x90,0x2d,
0x3f,0x42,0x80,0x2d,0x00,0x1e,0x90,0x2d,0x3f,0x40,0x80,0x2d,0x00,0x1d,0x90,0x2d,
0x3f,0x60,0x80,0x43,0x00,0x06,0x80,0x2d,0x00,0x20,0xff,0x2f,0x00,
};
